<svg xmlns="http://www.w3.org/2000/svg" width="960" height="540" viewBox="0 0 960 540"><style>text{font-family:Arial,sans-serif;fill:#eeedf3}.muted{fill:#a6a7b5}.tiny{font-size:18px;letter-spacing:2px}.label{font-size:24px}.line{stroke:#444653;stroke-width:2;fill:none}</style><rect width="960" height="540" fill="#1b1d24"/><circle cx="760" cy="210" r="270" fill="#b8a4ec" opacity=".04"/><text x="48" y="52" class="tiny muted">TINY TRANSFORMER / LANGUAGE MODEL</text><text x="48" y="164" font-size="46" font-weight="bold">Context, one</text><text x="48" y="222" font-size="46" font-weight="bold">token at a time.</text><g font-size="23"><rect x="48" y="274" width="89" height="51" rx="9" fill="#33303f"/><text x="69" y="307">the</text><rect x="149" y="274" width="105" height="51" rx="9" fill="#303b3b"/><text x="173" y="307" style="fill:#8ecdb4">river</text><rect x="266" y="274" width="105" height="51" rx="9" fill="#33303f"/><text x="289" y="307">bank</text></g><path d="M50 378h312m-13-10 13 10-13 10" stroke="#7f739e" stroke-width="2" fill="none"/><text x="48" y="423" font-size="21" class="muted">tokens → attention → prediction</text><rect x="569" y="135" width="40" height="40" rx="6" fill="#b8a4ec" opacity="0.3"/><rect x="617" y="135" width="40" height="40" rx="6" fill="#ffffff" opacity="0.055"/><rect x="665" y="135" width="40" height="40" rx="6" fill="#ffffff" opacity="0.055"/><rect x="713" y="135" width="40" height="40" rx="6" fill="#ffffff" opacity="0.055"/><rect x="761" y="135" width="40" height="40" rx="6" fill="#ffffff" opacity="0.055"/><rect x="809" y="135" width="40" height="40" rx="6" fill="#ffffff" opacity="0.055"/><rect x="569" y="183" width="40" height="40" rx="6" fill="#b8a4ec" opacity="0.47"/><rect x="617" y="183" width="40" height="40" rx="6" fill="#b8a4ec" opacity="0.64"/><rect x="665" y="183" width="40" height="40" rx="6" fill="#ffffff" opacity="0.055"/><rect x="713" y="183" width="40" height="40" rx="6" fill="#ffffff" opacity="0.055"/><rect x="761" y="183" width="40" height="40" rx="6" fill="#ffffff" opacity="0.055"/><rect x="809" y="183" width="40" height="40" rx="6" fill="#ffffff" opacity="0.055"/><rect x="569" y="231" width="40" height="40" rx="6" fill="#b8a4ec" opacity="0.64"/><rect x="617" y="231" width="40" height="40" rx="6" fill="#b8a4ec" opacity="0.81"/><rect x="665" y="231" width="40" height="40" rx="6" fill="#b8a4ec" opacity="0.3"/><rect x="713" y="231" width="40" height="40" rx="6" fill="#ffffff" opacity="0.055"/><rect x="761" y="231" width="40" height="40" rx="6" fill="#ffffff" opacity="0.055"/><rect x="809" y="231" width="40" height="40" rx="6" fill="#ffffff" opacity="0.055"/><rect x="569" y="279" width="40" height="40" rx="6" fill="#b8a4ec" opacity="0.81"/><rect x="617" y="279" width="40" height="40" rx="6" fill="#b8a4ec" opacity="0.3"/><rect x="665" y="279" width="40" height="40" rx="6" fill="#b8a4ec" opacity="0.47"/><rect x="713" y="279" width="40" height="40" rx="6" fill="#b8a4ec" opacity="0.64"/><rect x="761" y="279" width="40" height="40" rx="6" fill="#ffffff" opacity="0.055"/><rect x="809" y="279" width="40" height="40" rx="6" fill="#ffffff" opacity="0.055"/><rect x="569" y="327" width="40" height="40" rx="6" fill="#b8a4ec" opacity="0.3"/><rect x="617" y="327" width="40" height="40" rx="6" fill="#b8a4ec" opacity="0.47"/><rect x="665" y="327" width="40" height="40" rx="6" fill="#b8a4ec" opacity="0.64"/><rect x="713" y="327" width="40" height="40" rx="6" fill="#b8a4ec" opacity="0.81"/><rect x="761" y="327" width="40" height="40" rx="6" fill="#b8a4ec" opacity="0.3"/><rect x="809" y="327" width="40" height="40" rx="6" fill="#ffffff" opacity="0.055"/><rect x="569" y="375" width="40" height="40" rx="6" fill="#b8a4ec" opacity="0.47"/><rect x="617" y="375" width="40" height="40" rx="6" fill="#b8a4ec" opacity="0.64"/><rect x="665" y="375" width="40" height="40" rx="6" fill="#b8a4ec" opacity="0.81"/><rect x="713" y="375" width="40" height="40" rx="6" fill="#b8a4ec" opacity="0.3"/><rect x="761" y="375" width="40" height="40" rx="6" fill="#b8a4ec" opacity="0.47"/><rect x="809" y="375" width="40" height="40" rx="6" fill="#b8a4ec" opacity="0.64"/><text x="571" y="107" class="tiny muted">CAUSAL ATTENTION</text><text x="570" y="465" font-size="18" class="muted">Only current and earlier positions</text><text x="48" y="506" class="tiny muted">SMALL MODEL. VISIBLE OPERATIONS.</text></svg>